<svg xmlns="http://www.w3.org/2000/svg" width="28.508" height="25.701" viewBox="0 0 28.508 25.701">
  <g id="Group_111" data-name="Group 111" transform="translate(-298.211 -244.632)">
    <g id="Group_107" data-name="Group 107" transform="translate(298.211 244.632)">
      <path id="Path_374" data-name="Path 374" d="M317.312,255.241a.323.323,0,0,1-.088.281c-.973,1.476-1.9,2.981-2.728,4.543a11.736,11.736,0,0,0-1.367,3.706,6.274,6.274,0,0,0,1.387,5.38c.2.226.44.411.659.618.058.055.148.082.161.2a1.659,1.659,0,0,1-.589-.041,34.216,34.216,0,0,1-6.189-1.52,20.015,20.015,0,0,1-5.551-2.938,13.264,13.264,0,0,1-3.664-4.251,8.467,8.467,0,0,1-1.013-5.579,6.756,6.756,0,0,1,1.561-3.272,9.316,9.316,0,0,1,2.8-2.292,7.84,7.84,0,0,1,4.1-.868,9.808,9.808,0,0,1,3.582.916c.227.1.312.054.41-.161a9.141,9.141,0,0,1,3.6-4.211,8.833,8.833,0,0,1,7.7-.429,7.335,7.335,0,0,1,3.483,3.457,11.949,11.949,0,0,1,.943,7.425,18.183,18.183,0,0,1-1.683,5.114,30.219,30.219,0,0,1-3.306,5.209c-.99,1.281-2.077,2.477-3.17,3.668a.329.329,0,0,1-.28.138,3.3,3.3,0,0,1-3.018-2.469,1.814,1.814,0,0,1,.268-1.37,8.462,8.462,0,0,1,1.7-1.833,25.39,25.39,0,0,0,4.812-5.732,8.448,8.448,0,0,0,1.08-4.258,8.774,8.774,0,0,0-1.389-4.579,9.513,9.513,0,0,0-1.506-1.939c-.207-.205-.223-.2-.276.072a7.5,7.5,0,0,1-1.773,3.31c-1.04,1.262-2.22,2.4-3.372,3.554a13.039,13.039,0,0,0-3.385,5.536,5.075,5.075,0,0,0,.614,4.26,11.093,11.093,0,0,1,.122-1.309,9.517,9.517,0,0,1,1.154-3.277,17.4,17.4,0,0,1,2.544-3.355c.438-.474.9-.919,1.34-1.4C317.088,255.443,317.2,255.352,317.312,255.241ZM310.384,265.7c-.107-.111-.178-.19-.254-.263-.5-.48-1.014-.952-1.509-1.44a12.182,12.182,0,0,1-1.773-2.047,6.317,6.317,0,0,1-.71-1.465c-.02-.062-.065-.144,0-.187.082-.055.108.047.146.092a10.147,10.147,0,0,0,1.43,1.408,5.481,5.481,0,0,0,1.327.852c.115.047.269.107.251-.12a17.839,17.839,0,0,1,.136-2.833,2.232,2.232,0,0,0-1.335-2.32,5.344,5.344,0,0,0-1.4-.449,7.532,7.532,0,0,1-2.778-.974c-.143-.1-.195-.038-.2.112,0,.084,0,.168,0,.252a14.63,14.63,0,0,0,.559,3.713,7.188,7.188,0,0,0,2.223,3.514,11.535,11.535,0,0,0,3.388,2.028A1.5,1.5,0,0,0,310.384,265.7Z" transform="translate(-298.211 -244.632)" fill="#b7da0a"/>
    </g>
  </g>
</svg>
